<?xml version="1.0" standalone="no"?>
<!DOCTYPE svg PUBLIC "-//W3C//DTD SVG 20010904//EN"
 "http://www.w3.org/TR/2001/REC-SVG-20010904/DTD/svg10.dtd">
<svg version="1.0" xmlns="http://www.w3.org/2000/svg"
 width="536.000000pt" height="147.000000pt" viewBox="0 0 536.000000 147.000000"
 preserveAspectRatio="xMidYMid meet">

<g transform="translate(0.000000,147.000000) scale(0.100000,-0.100000)"
fill="#000000" stroke="none">
<path d="M676 1460 c-216 -34 -371 -111 -498 -249 -122 -132 -172 -270 -172
-476 0 -191 41 -317 144 -446 163 -203 416 -300 749 -286 143 6 242 25 342 69
100 43 98 40 59 86 -19 22 -41 41 -48 41 -7 1 -34 -10 -60 -23 -81 -41 -159
-57 -307 -63 -117 -4 -156 -2 -240 16 -308 63 -496 269 -512 561 -16 277 104
485 342 595 121 56 191 69 370 69 174 0 260 -16 365 -69 l48 -24 37 45 c21 25
35 47 33 49 -15 16 -152 69 -221 86 -94 24 -333 34 -431 19z"/>
<path d="M4525 1459 c-327 -42 -556 -212 -651 -484 -26 -74 -28 -91 -29 -235
0 -172 10 -221 71 -340 124 -245 368 -380 716 -397 277 -14 536 66 686 210
l42 41 0 268 0 268 -341 0 -340 0 3 -52 3 -53 273 -3 272 -2 0 -200 0 -200
-72 -47 c-140 -91 -317 -131 -528 -120 -143 8 -219 27 -337 83 -155 74 -265
206 -307 370 -21 82 -21 256 0 338 37 142 135 272 265 349 140 82 350 120 549
98 165 -18 282 -59 394 -138 l49 -35 40 40 39 40 -53 40 c-181 135 -464 196
-744 161z"/>
<path d="M1727 1434 c-4 -4 -7 -322 -7 -706 l0 -698 65 0 65 0 0 603 0 602
323 -600 323 -600 64 0 64 0 320 595 321 594 3 -597 2 -598 63 3 62 3 0 700 0
700 -79 0 -79 0 -337 -633 -338 -633 -21 38 c-12 21 -165 306 -339 633 l-317
595 -76 3 c-41 1 -78 0 -82 -4z"/>
</g>
</svg>
